<svg height="21.158" viewBox="0 0 145.708 21.158" width="145.708" xmlns="http://www.w3.org/2000/svg"><g fill="#fff"><path d="m621.307 33.64c.339 0 .644-.026.644-.434 0-.328-.3-.387-.578-.387h-.547v.821zm-.481 1.49h-.4v-2.656h1.012c.626 0 .935.232.935.756a.691.691 0 0 1 -.688.733l.757 1.167h-.45l-.7-1.151h-.462zm.488.593a1.919 1.919 0 1 0 -1.876-1.925 1.86 1.86 0 0 0 1.876 1.925m-2.341-1.923a2.333 2.333 0 1 1 2.341 2.308 2.3 2.3 0 0 1 -2.341-2.308" transform="translate(-477.932 -27.39)"/><path d="m93.463 31.534v14.02h7.891l-1.069 2.755h-10.259v-16.775z" transform="translate(-72.572 -27.415)"/><path d="m355.69 25.624c2.206-.858 4.759-2.683 4.759-5.879 0-3.857-3.363-5.842-8.166-5.842h-6.232v20.897h3.666v-8.614h2.183l5.768 8.611h4.211zm-4.1-2.082h-1.876v-7.142l2.273.009c3.078 0 4.674.965 4.674 3.51 0 2.785-1.986 3.628-5.071 3.628" transform="translate(-268.777 -13.904)"/><path d="m146.9 31.532.606 1.307-6.506 15.461h3.2l1.37-3.4h7.374l1.48 3.4h3.766l-7.381-16.773zm-.255 10.794 2.527-6.193 2.617 6.195z" transform="translate(-111.637 -27.413)"/><path d="m26.353 23.593a4.673 4.673 0 0 0 3.594-4.585c0-5.1-6.087-5.1-8.083-5.1h-6.541v20.892h6.292c3.58 0 9.518-.931 9.518-6.033 0-2.849-1.66-4.65-4.78-5.172m-4.963-7.184c2.743 0 4.68.32 4.68 2.841 0 3.331-3.41 3.151-5.117 3.151h-1.86v-6zm.086 15.63-2.382-.006v-6.9h2.168c3.3 0 6 .481 6 3.472 0 2.874-2.185 3.439-5.784 3.439" transform="translate(-15.323 -13.903)"/><path d="m278.413 31.437h3.437v16.8h-3.437zm10.706.008-7.07 8.055 7.086 8.733h4.036l-7.223-8.971 6.656-7.814z" transform="translate(-216.943 -27.34)"/><path d="m211.536 38.515c0 5.5 3.342 9.2 7.98 9.2a8.988 8.988 0 0 0 5.64-1.671l-.806-1.686a8.171 8.171 0 0 1 -3.967 1c-2.983 0-5.129-2.208-5.129-6.761 0-3.653 1.35-5.859 3.995-5.859a2.911 2.911 0 0 1 3.021 1.962l2.992-.838c-.312-1.138-1.833-3.452-6.219-3.452-4.026 0-7.507 2.725-7.507 8.1" transform="translate(-165.691 -26.555)"/><path d="m551.477 31.437h3.436v16.8h-3.436zm10.7.008-7.065 8.055 7.085 8.733h4.039l-7.226-8.971 6.655-7.814z" transform="translate(-426.206 -27.34)"/><path d="m484.123 38.515c0 5.5 3.341 9.2 7.98 9.2a8.987 8.987 0 0 0 5.639-1.671l-.807-1.686a8.168 8.168 0 0 1 -3.966 1c-2.98 0-5.129-2.208-5.129-6.761 0-3.653 1.35-5.859 3.995-5.859a2.912 2.912 0 0 1 3.022 1.968l2.992-.838c-.311-1.138-1.833-3.452-6.219-3.452-4.025 0-7.507 2.725-7.507 8.1" transform="translate(-374.589 -26.555)"/><path d="m418.845 30.408c-4.563 0-7.859 2.75-7.859 8.666 0 5.894 3.159 8.635 7.859 8.635s7.859-2.741 7.859-8.635c0-5.916-3.3-8.666-7.859-8.666m0 14.952c-3.51 0-4.287-2.844-4.287-6.286s.795-6.433 4.287-6.433 4.286 2.992 4.286 6.433-.777 6.286-4.286 6.286" transform="translate(-318.54 -26.552)"/></g></svg>