<svg height="45.157" viewBox="0 0 75.331 45.157" width="75.331" xmlns="http://www.w3.org/2000/svg"><g fill="#fff"><path d="m-632.28 1679.221h3.685a1.515 1.515 0 0 1 .026.192c-.006 2.6.009 5.2-.033 7.8-.013.809-.176 1.615-.271 2.422-.008.072-.015.144-.027.272.34-.294.637-.565.948-.818a9.446 9.446 0 0 1 6.381-2.271 5.937 5.937 0 0 1 4.1 1.452 6.538 6.538 0 0 1 1.761 3.262 20.571 20.571 0 0 1 .51 5.5 16.686 16.686 0 0 1 -.566 4.395 6.288 6.288 0 0 1 -5.435 4.749 19.561 19.561 0 0 1 -5 .052 27.528 27.528 0 0 1 -5.478-1c-.2-.06-.4-.124-.6-.185zm3.713 18.377q0 2.412 0 4.824c0 .167 0 .286.219.335a20.112 20.112 0 0 0 5.129.506 4.635 4.635 0 0 0 2.054-.5 3.875 3.875 0 0 0 1.872-2.758 17.014 17.014 0 0 0 .33-4.511 13.063 13.063 0 0 0 -.389-3.128 2.926 2.926 0 0 0 -2.177-2.276 5.739 5.739 0 0 0 -3.887.321 16.16 16.16 0 0 0 -2.925 1.923.521.521 0 0 0 -.231.468c.009 1.598.005 3.198.005 4.798z" transform="translate(632.28 -1673.622)"/><path d="m-388.068 2267.944c-.655-.125-1.319-.214-1.962-.384a9.655 9.655 0 0 1 -3.764-1.986.564.564 0 0 1 -.115-.1c-.063-.1-.116-.2-.173-.3a1.436 1.436 0 0 1 .334.048c.164.065.313.166.473.243a13.423 13.423 0 0 0 11.225.491c.048-.019.1-.057.145-.053.115.009.228.037.342.057-.045.112-.057.27-.14.33a7.592 7.592 0 0 1 -2.561 1.213c-.715.186-1.448.3-2.173.444z" transform="translate(409.035 -2222.788)"/><path d="m-632.28 2187.238c.564-1.311 1.661-1.084 2.781-.935a7.456 7.456 0 0 0 -.05-.868.621.621 0 0 0 -.726-.507c-.559.025-1.115.109-1.682.169-.128-.464-.078-.573.411-.711a3.865 3.865 0 0 1 1.951-.091 1.021 1.021 0 0 1 .882.971c.04 1.147.02 2.3.022 3.443 0 .017-.019.035-.039.068h-.654l-.1-.386c-1.4.921-2.531.48-2.8-.463zm1.932-.438v-.02a3.967 3.967 0 0 0 -.522.071.686.686 0 0 0 -.522.859.61.61 0 0 0 .738.509 5.146 5.146 0 0 0 1.016-.354.305.305 0 0 0 .129-.219c.083-.723-.021-.837-.744-.846z" transform="translate(632.28 -2146.909)"/><path d="m503.23 2186.354c-.251.613-.51 1.222-.752 1.838-.427 1.086-.841 2.177-1.268 3.263-.344.876-.853 1.2-1.631 1.093-.307-.043-.484-.153-.418-.493a1.851 1.851 0 0 0 .016-.217.39.39 0 0 1 .1-.014 1.09 1.09 0 0 0 1.375-1.094.8.8 0 0 0 -.09-.326q-.763-1.917-1.53-3.833c-.042-.1-.074-.212-.122-.351a6.347 6.347 0 0 1 .77.011.376.376 0 0 1 .232.224c.36.989.706 1.982 1.056 2.974.034.1.073.189.141.363.139-.4.253-.725.364-1.051.249-.729.505-1.457.74-2.191.077-.241.177-.374.453-.334a4.459 4.459 0 0 0 .563.013z" transform="translate(-427.899 -2148.783)"/><path d="m299.9 1705.956v-26.423h3.756v.345c0 3.781.013 7.563-.008 11.344-.006 1.135-.105 2.269-.165 3.454h.911a3.252 3.252 0 0 0 1.268-.051c.351-.166.569-.617.838-.949 1.5-1.86 3.013-3.717 4.5-5.589a.868.868 0 0 1 .785-.369c1.15.023 2.3.009 3.452.009h.367c-.472.584-.9 1.117-1.333 1.648-1.41 1.735-2.808 3.48-4.237 5.2-.416.5-.918.93-1.364 1.375a64.882 64.882 0 0 1 4.52 5.908c.955 1.255 1.866 2.543 2.8 3.816.06.082.114.168.194.288-.137.007-.236.017-.334.017-1.192 0-2.385-.007-3.577.007a.587.587 0 0 1 -.561-.285c-1.918-2.761-3.851-5.513-5.769-8.275a.584.584 0 0 0 -.561-.292c-.645.017-1.291.006-1.948.006.316 2.954.091 5.877.183 8.818z" transform="translate(-241.377 -1673.914)"/><path d="m-24.077 1818.41v-18.21h3.132l.228 2.607c.137-.091.236-.155.334-.222a16.793 16.793 0 0 1 6-2.809 9.2 9.2 0 0 1 3.765-.106 4.152 4.152 0 0 1 3.536 3.88c.04.394.061.791.061 1.187q.006 6.644 0 13.288v.39h-3.713v-.374q0-6.3 0-12.6a5.848 5.848 0 0 0 -.1-1.088 1.888 1.888 0 0 0 -2.087-1.73 8.44 8.44 0 0 0 -3.988.933c-1.108.537-2.182 1.143-3.277 1.705-.193.1-.192.241-.192.412q0 6.174 0 12.348v.391z" transform="translate(62.257 -1786.368)"/><path d="m-308.084 1679.485h3.718v.446q0 10.531 0 21.063a3.99 3.99 0 0 0 .058.748 1.885 1.885 0 0 0 1.825 1.6c.645.05 1.3.042 1.943.037.222 0 .314.062.346.284.111.774.238 1.545.371 2.393-.458.09-.909.205-1.367.262a11.235 11.235 0 0 1 -3.434.046 3.987 3.987 0 0 1 -3.417-3.776c-.028-.353-.044-.709-.044-1.063q0-10.813 0-21.627z" transform="translate(328.436 -1673.869)"/><path d="m-145.078 1810.219h3.616v18.22h-3.616z" transform="translate(175.662 -1796.396)"/><path d="m-381.1 2186a1.155 1.155 0 0 1 2.092.015c.488-.611.921-.787 1.494-.606a.921.921 0 0 1 .725.847c.04.76.036 1.522.047 2.284v1.034c0 .192-.079.286-.283.283-1.019-.015-.829.12-.842-.777-.01-.7 0-1.4 0-2.1 0-.39-.132-.557-.423-.584a.513.513 0 0 0 -.573.526c-.039.823-.04 1.647-.051 2.471-.006.46 0 .462-.462.46-.715 0-.639.07-.641-.633 0-.679 0-1.358 0-2.037 0-.556-.149-.794-.489-.8s-.536.257-.545.8c-.012.772-.017 1.546 0 2.318.006.285-.1.359-.365.353-.882-.02-.753.1-.758-.742-.006-1.107.007-2.214-.007-3.321 0-.3.1-.4.383-.369a.976.976 0 0 0 .125 0c.548.004.548.004.573.578z" transform="translate(397.879 -2147.968)"/><path d="m-142.609 1690.835c0 .386.017.772 0 1.157a.917.917 0 0 1 -1.058.994c-.553 0-1.107 0-1.66 0-.627 0-.99-.287-1.018-.9-.038-.832-.037-1.668 0-2.5a.87.87 0 0 1 .97-.886q.892-.018 1.785 0a.9.9 0 0 1 .98.946c.019.396.001.793.001 1.189z" transform="translate(176.879 -1682.498)"/><path d="m148.795 2188.732h-.853v-4.385c.5-.141.65-.082.819.331.907-.435 1.818-.937 2.744.054l.336-.189a2.672 2.672 0 0 1 1.4-.373 1.055 1.055 0 0 1 1.18 1.039c.052 1.164.014 2.333.014 3.517h-.861v-.332c0-.867 0-1.733 0-2.6 0-.787-.319-1.038-1.087-.877-.031.007-.062.011-.092.018-.727.17-.778.233-.778.968v2.813h-.875v-.5c0-.835 0-1.671 0-2.506 0-.671-.318-.928-.981-.821-.062.01-.123.025-.184.039-.715.152-.784.236-.784.961v2.84z" transform="translate(-98.963 -2146.861)"/><path d="m272.831 2188.466v2.139h-.868v-6.187h.709l.091.314a6.533 6.533 0 0 1 1.168-.433 1.675 1.675 0 0 1 2.006 1.282 3.349 3.349 0 0 1 -.016 2 1.841 1.841 0 0 1 -2.847 1.029c-.068-.037-.137-.078-.243-.144zm0-1.876a7.6 7.6 0 0 1 -.007.844.51.51 0 0 0 .372.594c.1.038.191.084.29.115a1.172 1.172 0 0 0 1.658-1.06 4.774 4.774 0 0 0 0-.934 1.153 1.153 0 0 0 -1.594-1.11 4.094 4.094 0 0 0 -.493.193.348.348 0 0 0 -.235.387c.018.324.005.648.005.971z" transform="translate(-215.199 -2146.965)"/><path d="m-450.28 2186.564c.065-.708-.284-1.049-.8-.81a.717.717 0 0 0 -.327.345.279.279 0 0 1 -.356.2c-.113-.021-.227-.033-.342-.045-.421-.042-.47-.112-.3-.508a1.622 1.622 0 0 1 1.582-.921 2.625 2.625 0 0 1 .8.1 1.073 1.073 0 0 1 .879 1.044c.026.583 0 1.17.041 1.752a2.119 2.119 0 0 0 .235.783c.1.189.1.3-.07.418a2.3 2.3 0 0 0 -.192.161c-.475.412-.481.411-.877-.11-.024-.032-.052-.061-.024-.029a6.307 6.307 0 0 1 -1.141.445 1.123 1.123 0 0 1 -1.383-.732 1.376 1.376 0 0 1 .634-1.723 6.5 6.5 0 0 1 1.231-.319c.13-.025.267-.032.41-.051zm.056.707-.11-.095a5.347 5.347 0 0 0 -.834.278.631.631 0 0 0 -.229.8.662.662 0 0 0 .424.332.562.562 0 0 0 .6-.447 6.241 6.241 0 0 0 .149-.868z" transform="translate(463.915 -2147.489)"/><path d="m-282.306 2189.129a1.622 1.622 0 0 1 -1.333.57 1.072 1.072 0 0 1 -1.074-.671 1.446 1.446 0 0 1 .222-1.529 2.137 2.137 0 0 1 1.471-.6c.174-.024.35-.041.536-.062.024-.285.084-.565-.17-.763a.57.57 0 0 0 -.677-.028.665.665 0 0 0 -.273.319.285.285 0 0 1 -.383.207c-.113-.021-.227-.032-.342-.043-.385-.037-.431-.107-.282-.476a1.5 1.5 0 0 1 1.435-.932 3.259 3.259 0 0 1 1.074.122 1.012 1.012 0 0 1 .763 1c.02.563.023 1.126.018 1.689a1.241 1.241 0 0 0 .262.876.215.215 0 0 1 -.042.366 2.512 2.512 0 0 0 -.216.181c-.474.415-.476.415-.863-.071zm-.127-1.583-.088-.088a5.351 5.351 0 0 0 -.795.23.667.667 0 0 0 -.3.787.44.44 0 0 0 .423.394.607.607 0 0 0 .63-.47 5.806 5.806 0 0 0 .13-.853z" transform="translate(306.646 -2147.76)"/><path d="m-155.493 2187.7a2.372 2.372 0 0 1 -.689 1.74 1.683 1.683 0 0 1 -2.509-.232 3.105 3.105 0 0 1 -.063-3.151 1.706 1.706 0 0 1 2.87.038 2.972 2.972 0 0 1 .391 1.605zm-1.176-.043c-.039-.355-.057-.678-.115-.993-.064-.348-.253-.514-.536-.509a.545.545 0 0 0 -.539.476 3.863 3.863 0 0 0 .026 1.944.507.507 0 0 0 .493.444.515.515 0 0 0 .531-.439 9.317 9.317 0 0 0 .14-.921z" transform="translate(188.853 -2147.926)"/><path d="m-90.422 2186.151a1.117 1.117 0 0 1 1.27-.752 1 1 0 0 1 .908.969 33.145 33.145 0 0 1 .015 3.318c-.026.435-.518.129-.787.2-.174.048-.293-.034-.291-.252.007-.783.005-1.567 0-2.35a1.046 1.046 0 0 0 -.055-.46c-.083-.158-.238-.374-.374-.384a.607.607 0 0 0 -.49.276 2.4 2.4 0 0 0 -.167.877c-.023.657-.015 1.316 0 1.974 0 .244-.077.335-.325.33-.945-.021-.771.11-.779-.775-.01-1.107.005-2.214-.008-3.321 0-.267.092-.34.345-.338.644.006.644-.004.738.688z" transform="translate(125.455 -2148.012)"/><path d="m65.386 2184.4a1.921 1.921 0 0 1 2.07 1.8 2.647 2.647 0 0 1 -.482 2.224 2.1 2.1 0 0 1 -2.329.563 1.82 1.82 0 0 1 -1.335-1.651 4.312 4.312 0 0 1 .008-1.244 1.913 1.913 0 0 1 2.068-1.692zm-1.254 2.316a7.085 7.085 0 0 0 .129.832 1.03 1.03 0 0 0 1.076.822 1.055 1.055 0 0 0 1.155-.8 2.833 2.833 0 0 0 0-1.634 1.168 1.168 0 0 0 -2.231-.02 6.772 6.772 0 0 0 -.129.796z" transform="translate(-19.605 -2147.084)"/><path d="m349.954 2185.12c-.07-.564-.051-.6.53-.743a3.9 3.9 0 0 1 1.83-.061 1 1 0 0 1 .876.9c.046 1.185.015 2.373.015 3.578h-.669l-.081-.31a8.345 8.345 0 0 1 -1.322.407 1.233 1.233 0 0 1 -1.494-1.075 1.32 1.32 0 0 1 1.159-1.548 12.674 12.674 0 0 1 1.613-.013 5.729 5.729 0 0 0 -.06-.852.606.606 0 0 0 -.7-.454c-.558.032-1.114.11-1.697.171zm1.626 1.7-.007-.035a4.456 4.456 0 0 0 -.667.136.658.658 0 0 0 -.395.743.594.594 0 0 0 .533.568 1.757 1.757 0 0 0 1.286-.382.225.225 0 0 0 .068-.131c.15-.7 0-.89-.725-.9z" transform="translate(-287.985 -2146.932)"/><path d="m-554.094 2184.414c.646-.076.646-.076.816.4.258-.128.51-.272.776-.38a2.346 2.346 0 0 1 1.384-.125.918.918 0 0 1 .815.84c.045 1.216.015 2.435.015 3.671h-.808c-.008-.111-.021-.221-.022-.33 0-.815 0-1.629 0-2.444a3.261 3.261 0 0 0 -.033-.467.645.645 0 0 0 -.675-.609 2.09 2.09 0 0 0 -1.272.366.423.423 0 0 0 -.132.31c-.01.94-.006 1.88-.006 2.819v.354h-.855z" transform="translate(559.002 -2146.95)"/><path d="m428.842 2188.868h-.849v-4.418h.7l.112.443a2.921 2.921 0 0 1 1.931-.583 1.036 1.036 0 0 1 1.063.956c.039 1.188.012 2.378.012 3.591h-.831c-.006-.119-.016-.23-.016-.342 0-.856 0-1.713 0-2.57 0-.76-.348-1.044-1.094-.907-.072.013-.144.024-.215.042-.723.181-.81.292-.81 1.031z" transform="translate(-361.434 -2146.996)"/><path d="m-214.091 2187.377c-.468 0-.851-.007-1.234 0-.215.005-.291-.074-.292-.293 0-.614-.013-.614.6-.614.68 0 1.359.007 2.039 0 .243 0 .327.079.333.326a1.2 1.2 0 0 1 -.248.781c-.437.6-.852 1.208-1.28 1.821.4.083.781.136 1.145.243a.793.793 0 0 1 .422 1.058.242.242 0 0 1 -.225.053 3.055 3.055 0 0 0 -2.666 0c-.192.089-.249 0-.256-.167a1.8 1.8 0 0 1 .331-1.321c.462-.573.855-1.204 1.331-1.887z" transform="translate(241.907 -2149.028)"/><path d="m4.092 2185.472c-.745-.095-1.515-.372-2.073.362a2.346 2.346 0 0 0 0 2.218c.583.75 1.366.468 2.117.339a.285.285 0 0 1 .026.078c.024.583.008.628-.58.72a3.73 3.73 0 0 1 -1.057.033 1.759 1.759 0 0 1 -1.585-1.466 3.4 3.4 0 0 1 .03-1.7 1.982 1.982 0 0 1 2.227-1.42 3.788 3.788 0 0 1 .4.059c.544.114.591.189.495.777z" transform="translate(38.901 -2147.292)"/><path d="m-216.134 2261.185a1.478 1.478 0 0 1 .986-.449 8.014 8.014 0 0 1 1.336.027.365.365 0 0 1 .252.25 2.7 2.7 0 0 1 -.89 2.152c-.034.031-.093.035-.206.074.039-.159.06-.271.093-.38.116-.378.258-.75.349-1.133.078-.328-.015-.464-.352-.483-.415-.024-.833.019-1.25.031-.1 0-.2 0-.294 0z" transform="translate(242.258 -2218.615)"/><path d="m.473 0h74v3h-74z"/></g></svg>