<svg height="26.85" viewBox="0 0 145.708 26.85" width="145.708" xmlns="http://www.w3.org/2000/svg"><g fill="#fff"><path d="m74.42 17.627v1.293h-3.058v1.425h2.906v1.293h-2.906v2.586h-1.472v-6.6h4.53z" transform="translate(-22.42 -5.841)"/><path d="m89.1 17.627h1.472v6.6h-1.472z" transform="translate(-28.306 -5.841)"/><path d="m107 18.9v5.322h-1.471v-5.322h-1.869v-1.273h5.208v1.273z" transform="translate(-32.767 -5.841)"/><path d="m128.951 19.817a1.943 1.943 0 0 1 -1.255 2.047l1.669 2.36h-1.809l-1.463-2.1h-1.019v2.1h-1.474v-6.6h2.5a3.585 3.585 0 0 1 2.194.519 2 2 0 0 1 .657 1.674zm-1.774.784a.992.992 0 0 0 .275-.78.836.836 0 0 0 -.283-.731 1.815 1.815 0 0 0 -.99-.2h-1.1v1.954h1.074a1.583 1.583 0 0 0 1.023-.244z" transform="translate(-38.878 -5.841)"/><path d="m148.694 24.225-.614-1.426h-2.763l-.614 1.426h-1.567l2.849-6.6h1.425l2.85 6.6zm-1.994-4.635-.83 1.917h1.65z" transform="translate(-44.864 -5.842)"/><path d="m170.434 18.491a3.1 3.1 0 0 1 .942 2.4 3.238 3.238 0 0 1 -.921 2.434 3.883 3.883 0 0 1 -2.807.9h-2.254v-6.6h2.329a3.877 3.877 0 0 1 2.711.866zm-1.08 3.921a1.937 1.937 0 0 0 .542-1.482 1.991 1.991 0 0 0 -.542-1.5 2.322 2.322 0 0 0 -1.665-.524h-.82v4.01h.934a2.174 2.174 0 0 0 1.551-.504z" transform="translate(-51.685 -5.842)"/><path d="m186.74 17.627h1.472v6.6h-1.472z" transform="translate(-58.225 -5.841)"/><path d="m207.468 23.246a3.594 3.594 0 0 1 -4.926 0 3.453 3.453 0 0 1 0-4.859 3.594 3.594 0 0 1 4.926 0 3.449 3.449 0 0 1 0 4.859zm-.5-2.425a2.159 2.159 0 0 0 -.565-1.505 1.867 1.867 0 0 0 -2.784 0 2.276 2.276 0 0 0 0 3.005 1.877 1.877 0 0 0 2.784 0 2.14 2.14 0 0 0 .565-1.5z" transform="translate(-62.761 -5.775)"/><path d="m26.013 25.063v-12h-4.672v12h-3.476v-17.094h-4.671v19.431a2.335 2.335 0 0 0 2.335 2.335h22.1v-4.671h-11.616z" transform="translate(-5.047 -2.882)"/><path d="m24.438 15.348h4.671v3.766h-4.671z"/><path d="m1.448 25.149a2.334 2.334 0 0 0 2.335 2.335h2.336v-26.849h-4.671z" transform="translate(-1.448 -.635)"/></g></svg>