<svg height="30.986" viewBox="0 0 128.2 30.986" width="128.2" xmlns="http://www.w3.org/2000/svg"><g fill="#fff"><path d="m2167.012 1420.8c.865-3.054 1.726-6.109 2.605-9.158.044-.154.248-.373.381-.375 1.558-.026 3.116-.017 4.836-.017-.334 1.142-.613 2.144-.921 3.136-.786 2.532-1.59 5.059-2.377 7.591a27.462 27.462 0 0 1 -1.025 3.245c-.172.379-.874.637-1.374.726-1.5.267-3.026.418-4.54.625-.533.073-.8-.021-1-.648-.867-2.718-1.839-5.4-2.776-8.1a1.566 1.566 0 0 0 -.179-.267c-1 3.07-1.968 6.084-2.971 9.087a.941.941 0 0 1 -.586.569c-1.667.2-3.341.368-5.018.466-.208.012-.558-.4-.649-.683q-1.726-5.321-3.388-10.662c-.513-1.635-1-3.279-1.522-5.022h5.435l2.694 9.48.171.067c.326-.929.659-1.857.978-2.789.716-2.094 1.412-4.2 2.156-6.28a.909.909 0 0 1 .63-.526c1.652-.044 3.306-.024 5.019-.024l3.212 9.631z" transform="translate(-2055.388 -1403.477)"/><path d="m1895.326 1398.209a7.67 7.67 0 0 1 5.467-1.31 5.462 5.462 0 0 1 4.925 4.117 16.722 16.722 0 0 1 .314 3.05c.044 2.392-.012 4.787.029 7.179.013.785-.291 1.021-1.032 1.05-1.028.04-2.053.175-3.075.3-.816.1-1.161-.136-1.137-1.041.061-2.274.045-4.55.009-6.824-.018-1.1-.11-2.221-1.268-2.808a3.066 3.066 0 0 0 -2.948.046 2.4 2.4 0 0 0 -1.238 2.277c0 2.748-.007 5.5 0 8.243 0 .485-.048.907-.632.985-1.539.2-3.079.4-4.677.6v-24.573h5.262z" transform="translate(-1890.064 -1389.463)"/><path d="m2102.072 1427.263c-.621 0-1.245-.041-1.861.008-2.291.18-3.874-1.086-5.167-2.691a8.962 8.962 0 0 1 -1.977-6.14 8.807 8.807 0 0 1 6.149-8.147 9.2 9.2 0 0 1 8.085 1.052 8.346 8.346 0 0 1 3.746 5.9 9.333 9.333 0 0 1 -1.233 6.5 8.587 8.587 0 0 1 -4.036 3.419 2.073 2.073 0 0 1 -.782.095c-.974.01-1.949.004-2.924.004zm-3.646-8.414a3.748 3.748 0 0 0 5.684 3.624 3.969 3.969 0 0 0 1.8-4.361c-.414-2.819-2.538-4.029-5.218-3.123-1.779.6-2.337 2.088-2.267 3.86z" transform="translate(-2020.93 -1402.561)"/><path d="m1939.149 1411.092c1.9 0 3.666-.023 5.427.029.219.006.507.37.628.631 1.174 2.515 2.317 5.044 3.476 7.566a6.526 6.526 0 0 0 .4.635c.827-1.994 1.6-3.864 2.378-5.732.056-.135.121-.264.182-.4.416-.9.608-2.143 1.31-2.589.723-.459 1.943-.144 2.946-.157.735-.01 1.47 0 2.4 0-.437 1.034-.8 1.937-1.2 2.824-2.906 6.51-5.806 13.021-8.761 19.509a1.73 1.73 0 0 1 -1.227.8 8.777 8.777 0 0 1 -4.433-.415q.993-2.292 1.979-4.564c.419-.964.885-1.911 1.248-2.9a1.607 1.607 0 0 0 -.033-1.135c-2.165-4.509-4.365-9-6.553-13.5a4.941 4.941 0 0 1 -.167-.602z" transform="translate(-1921.708 -1403.316)"/><path d="m2062.66 1427.355c-1.589-.161-3.08-.282-4.557-.5-.2-.029-.461-.533-.466-.821-.038-2.3-.022-4.606-.022-6.908 0-2.332.019-4.665-.012-7-.009-.665.149-.96.885-.931 1.354.052 2.712.015 4.164.015.036.592.068 1.133.1 1.61a11.563 11.563 0 0 1 2.347-1.392 9.965 9.965 0 0 1 2.766-.224.677.677 0 0 1 .48.459c.038 1.5.022 3 .022 4.6-.723 0-1.363-.006-2 0a3.344 3.344 0 0 0 -3.306 2.854c-.2 2.342-.216 4.7-.314 7.05-.021.372-.056.742-.087 1.188z" transform="translate(-1998.072 -1403.452)"/><path d="m2012.621 1390.05c-.146-.247-.393-.607-.608-.615-1.5-.053-3.011-.028-4.7-.028v8.863a6.964 6.964 0 0 0 -5.156-1.392 7.2 7.2 0 0 0 -5.456 2.659 9.993 9.993 0 0 0 -.985 10.851 1.565 1.565 0 0 0 1.545.934c1.979 0 3.965 0 5.938.134 3 .2 5.99.523 8.985.785a1.623 1.623 0 0 0 .454-.112v-.82q0-10.324 0-20.648c.004-.207.074-.461-.017-.611zm-8.983 19.772c-2.385-.048-3.715-1.392-3.817-4.148-.082-2.239 1.427-4.291 3.806-4.1 2.043-.217 3.819 1.487 3.792 4.082-.028 2.75-1.651 4.209-3.781 4.166z" transform="translate(-1957.437 -1389.401)"/><path d="m2230.3 1400.545h2.721v.6h-.988v3.109h-.744v-3.109h-.988z" transform="translate(-2109.406 -1396.585)"/><path d="m2239.481 1400.545h.845l1.18 2.758 1.18-2.758h.84v3.709h-.744v-2.413l-.993 2.413h-.563l-1-2.413v2.413h-.745z" transform="translate(-2115.326 -1396.585)"/></g></svg>