<svg height="27.415" viewBox="0 0 161.941 27.415" width="161.941" xmlns="http://www.w3.org/2000/svg"><g fill="#fff"><path d="m633.431 324.265 9.105-12.4c-2 0-3.82.012-5.638-.009a1.078 1.078 0 0 0 -1 .511q-3.745 5.244-7.525 10.461c-.12.166-.257.32-.386.479l-.133-.057v-11.38c-1.794 0-3.521-.011-5.248.026-.111 0-.318.377-.32.58-.023 2.137-.014 4.275-.014 6.413 0 5.648.01 11.3-.014 16.943 0 .6.164.778.758.749 1.123-.047 2.25-.013 3.375-.013h1.537v-10.905c.229.333.357.518.48.706 2.111 3.211 4.236 6.417 6.334 9.641a1.111 1.111 0 0 0 1.092.576c1.667-.033 3.334-.011 5-.014.216 0 .431-.022.766-.041zm44.3 12.277v-13.668h3.438v-4.536h-3.428a11.773 11.773 0 0 1 .009-1.445 2.223 2.223 0 0 1 2.265-2.145 10.4 10.4 0 0 1 1.548.029c.382.025.527-.118.523-.5q-.017-1.788 0-3.576c0-.388-.19-.522-.536-.521a27.45 27.45 0 0 0 -3.424.033 5.9 5.9 0 0 0 -5.407 5.033c-.207.979-.242 1.994-.369 3.1-.523 0-1.08-.023-1.633.014-.174.012-.482.182-.484.287-.032 1.386-.022 2.773-.022 4.247h2.289v13.642zm15.586.583c-.136-.179-.212-.287-.293-.39a11.145 11.145 0 0 1 -2.541-6.138c-.166-2.506-.062-5.028-.073-7.544 0-.033.049-.068.128-.168 1.025 0 2.1.014 3.176-.014.192 0 .541-.187.543-.293.037-1.385.024-2.77.024-4.239h-3.935v-4.865h-5.184v4.876c-.543 0-1.012.018-1.48 0-.419-.02-.613.111-.6.569.022 1.146.019 2.294 0 3.445-.007.42.174.556.567.537.489-.019.979 0 1.549 0v.878c.033 2.427-.076 4.866.137 7.276.356 4.038 3.233 6.408 7.983 6.073zm-50.322-18.681a1.184 1.184 0 0 0 -.055.206q-.007 8.707-.018 17.413c0 .444.193.519.571.515 1.372-.014 2.745-.028 4.112.006.516.012.646-.161.641-.657-.023-2.271-.016-4.544-.007-6.816a8.5 8.5 0 0 1 .09-1.747 4.838 4.838 0 0 1 3.945-3.7c.467-.123.639-.3.635-.747-.01-1.012 0-2.025 0-3.037v-1.5a6.425 6.425 0 0 0 -4.647 3.2l-.137-.087v-3.08h-4.725c-.121 0-.252.014-.4.031zm55.493 7c0 1.111-.02 2.162 0 3.214a9.728 9.728 0 0 0 1.473 5.051 3.266 3.266 0 0 0 5.371.4 16.126 16.126 0 0 0 3.046-6.4c1.167-4.245 2.371-8.48 3.563-12.718.5-1.778.386-1.966-1.408-2.239a4.805 4.805 0 0 0 -5.778 3.694 6.819 6.819 0 0 0 .719 4.7c.282.527.516 1.08.878 1.847-1.575.122-2.967.256-4.362.311-.2.008-.511-.316-.615-.556a8.925 8.925 0 0 1 -.715-6.16 5.679 5.679 0 0 1 4.867-4.216 70.874 70.874 0 0 1 7.382-.583c1.3-.071 2.609-.007 3.914 0 .991.008 1.188.278.92 1.249q-1.339 4.838-2.68 9.676c-.058.207-.093.42-.159.713 1.427 0 2.773.016 4.112-.022.149 0 .369-.291.422-.484.667-2.379 1.248-4.784 1.981-7.141a12.578 12.578 0 0 1 1.445-2.933 2.472 2.472 0 0 1 2.281-1.066c1.413.029 2.827.008 4.259.008-2.951 3.4-3.549 7.7-4.7 11.768-.8 2.853-1.5 5.736-2.256 8.6a2.154 2.154 0 0 0 .591 2.289c.466.426.333.713-.1 1.012a8.977 8.977 0 0 1 -4.043 1.382c-.578.077-1.166.08-1.747.139-.619.062-1-.231-.981-.82a10.785 10.785 0 0 1 .277-2.323c.667-2.656 1.4-5.3 2.111-7.944.039-.148.059-.3.111-.55-1.415 0-2.778-.013-4.144.02-.134 0-.326.271-.382.444-.368 1.156-.706 2.321-1.055 3.483a7.75 7.75 0 0 1 -3.295 4.527 23.2 23.2 0 0 1 -7.905 3.495 6.211 6.211 0 0 1 -7.458-3.627 9.094 9.094 0 0 1 -1.053-5.6 1.241 1.241 0 0 1 .359-.755 11.106 11.106 0 0 1 4.406-1.934 1.442 1.442 0 0 1 .339.042zm58.205-4.273c.9-.518 1.74-1.066 2.637-1.508a9.493 9.493 0 0 1 4.334-1.128c1.658.019 2.411.919 2 2.547-.521 2.09-1.133 4.159-1.707 6.237-.418 1.515-.843 3.028-1.253 4.546-.465 1.714-.4 1.874 1.111 2.853a4.311 4.311 0 0 1 -.952.717c-1.556.579-3.1 1.189-4.7 1.617-1.425.381-2.16-.34-1.854-1.8.333-1.6.86-3.157 1.3-4.734.667-2.4 1.348-4.8 1.979-7.21.084-.324.04-.889-.161-1.028a1.392 1.392 0 0 0 -1.111-.01 4.611 4.611 0 0 0 -2.825 2.9c-.714 2.223-1.4 4.458-2 6.714a12.545 12.545 0 0 0 -.27 2.734c-.018.459-.128.823-.545.986-1.333.52-2.667 1.063-4.028 1.48a.97.97 0 0 1 -1.37-.96 9.976 9.976 0 0 1 .359-2.9c.919-3.193 1.931-6.36 2.91-9.535a2.031 2.031 0 0 0 -.269-1.981c-.29-.372-.256-.644.2-.918a15.224 15.224 0 0 1 5.365-1.9c.817-.138 1.038.061 1.008.878-.012.464-.1.924-.157 1.4zm17.684 2.385a1.729 1.729 0 0 0 -.413-.14c-1.642-.009-3.285-.032-4.926.014-.277.008-.55.326-.815.515s-.533.408-.836.641c-.084-.192-.147-.263-.13-.307.524-1.4.969-2.847 1.621-4.189a2.265 2.265 0 0 1 2.2-1.188c2.7.029 5.4 0 8.1.021a4.333 4.333 0 0 1 .984.242 3.946 3.946 0 0 1 -.366.973c-2.186 3.026-4.394 6.037-6.6 9.051q-.8 1.089-1.6 2.174c-.311.421-.156.636.316.638 2.565.009 5.131.03 7.7-.011a2.922 2.922 0 0 0 2.334-2.455 1.709 1.709 0 0 0 -1.731-1.838c-.287 0-.573.047-.86.071a1.952 1.952 0 0 1 1.835-2.368 5.181 5.181 0 0 1 .741.013 2.16 2.16 0 0 1 2.063 3.064 22.523 22.523 0 0 1 -1.854 3.729c-.764 1.268-1.69 2.437-2.539 3.655a1.615 1.615 0 0 1 -1.432.73c-4.095-.018-8.189-.017-12.284-.046a8.669 8.669 0 0 1 -1.416-.24 5.884 5.884 0 0 1 .619-1.282c2.075-2.515 4.188-5 6.282-7.5.851-1.016 1.7-2.04 2.523-3.077a5.874 5.874 0 0 0 .488-.9zm-36.96-4.646c-.424.041-.857.018-1.278.074a13.248 13.248 0 0 0 -11.4 13.948 4.09 4.09 0 0 0 3.246 4.117 8.563 8.563 0 0 0 8.953-3.445 3.7 3.7 0 0 0 .318-.715l-.111-.16c-.38.148-.771.273-1.139.444a5.533 5.533 0 0 1 -3.057.628 2.339 2.339 0 0 1 -2.308-2.068 14.348 14.348 0 0 1 .178-2.853c.051-.561.4-.8.95-.946a15.758 15.758 0 0 0 6.518-3.078 4.962 4.962 0 0 0 1.729-2.667 2.541 2.541 0 0 0 -2.6-3.281zm-2.28 3.41c-.374 1.052-.8 2.09-1.233 3.118a.945.945 0 0 1 -.506.47c-.62.211-1.262.358-1.9.53l-.2-.222c.7-1.445 1.4-2.884 2.1-4.32a1.425 1.425 0 0 1 .293-.367c.356-.352.751-.752 1.282-.468.556.3.311.843.162 1.256zm10.716 12.371a4.153 4.153 0 0 1 -.542.464 16.144 16.144 0 0 1 -5.014 1.916c-1.58.3-2.341-.37-2.172-1.979a10.97 10.97 0 0 1 .5-2.089c.958-3.066 1.937-6.125 2.909-9.187a2.315 2.315 0 0 0 -.2-2.31c-.089-.111.055-.578.222-.693a6.137 6.137 0 0 1 1.544-.813c1.256-.411 2.526-.792 3.814-1.087.956-.222 1.255.093 1.13 1.079a13.131 13.131 0 0 1 -.431 2.042c-.946 3.21-1.916 6.414-2.876 9.62-.039.129-.07.26-.106.39-.4 1.5-.233 1.9 1.227 2.652zm3.588-23.524c.963.014 1.111.181.895 1.082-.649 2.758-.827 2.98-3.454 4.029a8.406 8.406 0 0 1 -1.667.479c-.565.1-.878-.209-.907-.8a4.018 4.018 0 0 1 3.1-4.371c.662-.187 1.356-.281 2.035-.419z" opacity=".5" transform="translate(-622.249 -310.145)"/><path d="m633.431 325.6 8.161 12.266c-.333.019-.55.042-.766.042-1.667 0-3.334-.019-5 .014a1.111 1.111 0 0 1 -1.092-.576c-2.095-3.223-4.223-6.43-6.334-9.641-.123-.188-.252-.37-.48-.706v10.91h-1.537c-1.126 0-2.251-.033-3.375.013-.593.024-.76-.147-.758-.749.023-5.648.014-11.3.014-16.943 0-2.138-.009-4.275.014-6.413 0-.2.2-.577.32-.58 1.727-.037 3.455-.026 5.248-.026v11.378l.133.057c.129-.159.266-.312.386-.479q3.768-5.223 7.525-10.461a1.078 1.078 0 0 1 1-.511c1.818.021 3.637.009 5.638.009z" transform="translate(-622.25 -311.481)"/><path d="m715.011 336.542h-5.233v-13.642h-2.288c0-1.475-.011-2.861.022-4.247 0-.1.31-.275.484-.287.556-.037 1.111-.014 1.633-.014.127-1.111.162-2.122.369-3.1a5.9 5.9 0 0 1 5.407-5.033 27.443 27.443 0 0 1 3.424-.033c.346 0 .539.133.536.521q-.019 1.788 0 3.576c0 .377-.141.521-.523.5a10.386 10.386 0 0 0 -1.548-.029 2.222 2.222 0 0 0 -2.265 2.145 11.834 11.834 0 0 0 -.009 1.445h3.428v4.538h-3.438z" transform="translate(-659.529 -310.145)"/><path d="m740.6 339.719c-4.754.333-7.631-2.035-7.987-6.086-.211-2.41-.1-4.851-.136-7.276v-.878c-.57 0-1.06-.014-1.549 0-.391.016-.573-.111-.567-.537.017-1.147.02-2.294 0-3.445-.009-.456.186-.589.6-.569.468.022.937 0 1.48 0v-4.875h5.182v4.865h3.935c0 1.469.012 2.855-.024 4.239 0 .111-.351.288-.543.293-1.076.029-2.151.014-3.176.014-.078.1-.128.133-.128.168.011 2.516-.092 5.038.073 7.544a11.145 11.145 0 0 0 2.541 6.153c.086.103.163.21.299.39z" transform="translate(-669.532 -312.737)"/><path d="m659.06 324.853c.152-.011.283-.029.414-.03h4.726v3.08l.137.087a6.425 6.425 0 0 1 4.647-3.2v1.5c0 1.012-.014 2.025 0 3.037 0 .451-.167.623-.634.747a4.838 4.838 0 0 0 -3.945 3.7 8.5 8.5 0 0 0 -.09 1.746c-.009 2.272-.017 4.545.007 6.816 0 .495-.124.667-.641.657-1.371-.033-2.745-.02-4.112-.006-.379 0-.572-.071-.571-.515q.022-8.705.018-17.413a1.183 1.183 0 0 1 .044-.206z" transform="translate(-638.315 -316.552)"/><path d="m687.172 342.8-.141-.867c-.242.119-.451.222-.667.326a6.726 6.726 0 0 1 -6.289.078 5.635 5.635 0 0 1 -2.9-6.028 5.814 5.814 0 0 1 4.7-4.778 12.079 12.079 0 0 1 4.556.027c.171.027.343.038.517.057a2.3 2.3 0 0 0 -1.691-2.395 9.494 9.494 0 0 0 -4.474-.1c-.57.1-1.137.212-1.789.333 0-1.579-.008-3.1.013-4.627a.478.478 0 0 1 .306-.339c3.111-.5 6.212-.778 9.235.451a5.572 5.572 0 0 1 3.519 5.235c.177 2.889.111 5.8.145 8.7.012 1.1-.013 2.2.01 3.306.01.444-.092.645-.592.635-1.473-.03-2.954-.014-4.458-.014zm-.16-6.012c-.014-.247-.018-.676-.074-1.1-.02-.148-.149-.378-.262-.4a5.37 5.37 0 0 0 -3.692.181 1.976 1.976 0 0 0 -.243 3.328 2.768 2.768 0 0 0 2.242.488c2.24-.446 1.904-.068 2.029-2.494z" transform="translate(-646.247 -316.235)"/></g></svg>