<svg aria-hidden="true" style="position: absolute; width: 0; height: 0; overflow: hidden;" version="1.1" xmlns="http://www.w3.org/2000/svg" xmlns:xlink="http://www.w3.org/1999/xlink">
<defs>
<symbol id="icon-slack" viewBox="0 0 32 32">
<path fill="#4a154b" style="fill: var(--color1, #4a154b)" d="M6.723 20.22c-0.004 1.855-1.505 3.358-3.359 3.364h-0.001c-1.856-0.005-3.359-1.508-3.363-3.364v-0c0.005-1.854 1.508-3.356 3.362-3.36h3.36zM8.417 20.22c0.005-1.854 1.507-3.355 3.361-3.36h0c1.854 0.005 3.356 1.506 3.361 3.36v8.418c-0.005 1.855-1.507 3.357-3.361 3.363h-0.001c-1.855-0.005-3.357-1.508-3.361-3.362v-0zM11.779 6.723c-1.854-0.005-3.355-1.506-3.361-3.359v-0.001c0.005-1.855 1.507-3.357 3.361-3.363h0.001c1.855 0.005 3.357 1.508 3.361 3.362v3.36zM11.779 8.417c1.854 0.005 3.356 1.507 3.361 3.361v0.001c-0.005 1.854-1.507 3.356-3.361 3.361h-8.417c-1.855-0.005-3.357-1.507-3.363-3.361v-0.001c0.005-1.855 1.508-3.357 3.362-3.361h0zM25.275 11.779c0.005-1.855 1.508-3.357 3.362-3.361h0c1.855 0.005 3.357 1.507 3.363 3.361v0.001c-0.005 1.855-1.508 3.357-3.362 3.361h-3.363zM23.584 11.779c-0.005 1.855-1.509 3.358-3.364 3.361h-0c-1.854-0.005-3.355-1.507-3.36-3.361v-8.416c0.004-1.855 1.506-3.357 3.36-3.363h0c1.856 0.004 3.359 1.507 3.364 3.362v0zM20.22 25.275c1.856 0.004 3.359 1.507 3.364 3.362v0c-0.005 1.856-1.508 3.359-3.364 3.363h-0c-1.854-0.005-3.356-1.508-3.36-3.362v-3.363zM20.22 23.584c-1.855-0.005-3.357-1.509-3.36-3.364v-0c0.005-1.854 1.506-3.355 3.36-3.36h8.418c1.855 0.004 3.357 1.506 3.363 3.36v0c-0.004 1.856-1.507 3.359-3.362 3.364h-0z"></path>
</symbol>
<symbol id="icon-instagram" viewBox="0 0 32 32">
<path d="M16 2.881c4.275 0 4.781 0.019 6.462 0.094 1.563 0.069 2.406 0.331 2.969 0.55 0.744 0.288 1.281 0.638 1.837 1.194 0.563 0.563 0.906 1.094 1.2 1.838 0.219 0.563 0.481 1.412 0.55 2.969 0.075 1.688 0.094 2.194 0.094 6.463s-0.019 4.781-0.094 6.463c-0.069 1.563-0.331 2.406-0.55 2.969-0.288 0.744-0.637 1.281-1.194 1.837-0.563 0.563-1.094 0.906-1.837 1.2-0.563 0.219-1.413 0.481-2.969 0.55-1.688 0.075-2.194 0.094-6.463 0.094s-4.781-0.019-6.463-0.094c-1.563-0.069-2.406-0.331-2.969-0.55-0.744-0.288-1.281-0.637-1.838-1.194-0.563-0.563-0.906-1.094-1.2-1.837-0.219-0.563-0.481-1.413-0.55-2.969-0.075-1.688-0.094-2.194-0.094-6.463s0.019-4.781 0.094-6.463c0.069-1.563 0.331-2.406 0.55-2.969 0.288-0.744 0.638-1.281 1.194-1.838 0.563-0.563 1.094-0.906 1.838-1.2 0.563-0.219 1.412-0.481 2.969-0.55 1.681-0.075 2.188-0.094 6.463-0.094zM16 0c-4.344 0-4.887 0.019-6.594 0.094-1.7 0.075-2.869 0.35-3.881 0.744-1.056 0.412-1.95 0.956-2.837 1.85-0.894 0.888-1.438 1.781-1.85 2.831-0.394 1.019-0.669 2.181-0.744 3.881-0.075 1.713-0.094 2.256-0.094 6.6s0.019 4.887 0.094 6.594c0.075 1.7 0.35 2.869 0.744 3.881 0.413 1.056 0.956 1.95 1.85 2.837 0.887 0.887 1.781 1.438 2.831 1.844 1.019 0.394 2.181 0.669 3.881 0.744 1.706 0.075 2.25 0.094 6.594 0.094s4.888-0.019 6.594-0.094c1.7-0.075 2.869-0.35 3.881-0.744 1.050-0.406 1.944-0.956 2.831-1.844s1.438-1.781 1.844-2.831c0.394-1.019 0.669-2.181 0.744-3.881 0.075-1.706 0.094-2.25 0.094-6.594s-0.019-4.887-0.094-6.594c-0.075-1.7-0.35-2.869-0.744-3.881-0.394-1.063-0.938-1.956-1.831-2.844-0.887-0.887-1.781-1.438-2.831-1.844-1.019-0.394-2.181-0.669-3.881-0.744-1.712-0.081-2.256-0.1-6.6-0.1v0z"></path>
<path d="M16 7.781c-4.537 0-8.219 3.681-8.219 8.219s3.681 8.219 8.219 8.219 8.219-3.681 8.219-8.219c0-4.537-3.681-8.219-8.219-8.219zM16 21.331c-2.944 0-5.331-2.387-5.331-5.331s2.387-5.331 5.331-5.331c2.944 0 5.331 2.387 5.331 5.331s-2.387 5.331-5.331 5.331z"></path>
<path d="M26.462 7.456c0 1.060-0.859 1.919-1.919 1.919s-1.919-0.859-1.919-1.919c0-1.060 0.859-1.919 1.919-1.919s1.919 0.859 1.919 1.919z"></path>
</symbol>
<symbol id="icon-linkedin2" viewBox="0 0 32 32">
<path d="M12 12h5.535v2.837h0.079c0.77-1.381 2.655-2.837 5.464-2.837 5.842 0 6.922 3.637 6.922 8.367v9.633h-5.769v-8.54c0-2.037-0.042-4.657-3.001-4.657-3.005 0-3.463 2.218-3.463 4.509v8.688h-5.767v-18z"></path>
<path d="M2 12h6v18h-6v-18z"></path>
<path d="M8 7c0 1.657-1.343 3-3 3s-3-1.343-3-3c0-1.657 1.343-3 3-3s3 1.343 3 3z"></path>
</symbol>
</defs>
</svg>
